HIERARCHY
ROOT Hips
{
	OFFSET 0.000000 8.830580 0.000000
	CHANNELS 6 Xposition Yposition Zposition Zrotation Yrotation Xrotation 
	JOINT Spine
	{
		OFFSET 0.000000 0.010000 0.000000
		CHANNELS 3 Zrotation Yrotation Xrotation
		JOINT Spine1
		{
			OFFSET 0.000000 2.459130 0.000000
			CHANNELS 3 Zrotation Yrotation Xrotation
			JOINT Neck
			{
				OFFSET 0.000000 2.484630 0.000000
				CHANNELS 3 Zrotation Yrotation Xrotation
				JOINT Head_virtual
				{
					OFFSET 0.000000 0.000000 0.000000
					CHANNELS 3 Zrotation Yrotation Xrotation
					JOINT Head
					{
						OFFSET 0.000000 0.927525 0.000000
						CHANNELS 3 Zrotation Yrotation Xrotation
						End Site
						{
							OFFSET 0.000000 0.000000 0.000000
						}
					}
				}
				JOINT LeftUpArm_virtual
				{
					OFFSET 0.000000 0.000000 0.000000
					CHANNELS 3 Zrotation Yrotation Xrotation
					JOINT LeftUpArm
					{
						OFFSET 1.248820 0.000000 0.000000
						CHANNELS 3 Zrotation Yrotation Xrotation
						JOINT LeftForeArm
						{
							OFFSET 2.597580 0.000000 0.000000
							CHANNELS 3 Zrotation Yrotation Xrotation
							JOINT LeftHand
							{
								OFFSET 2.455420 0.000000 0.000000
								CHANNELS 3 Zrotation Yrotation Xrotation
								End Site
								{
									OFFSET 0.000000 0.000000 0.000000
								}
							}
						}
					}
				}
				JOINT RightUpArm_virtual
				{
					OFFSET -0.000000 -0.000000 -0.000000
					CHANNELS 3 Zrotation Yrotation Xrotation
					JOINT RightUpArm
					{
						OFFSET -1.248820 -0.000000 -0.000000
						CHANNELS 3 Zrotation Yrotation Xrotation
						JOINT RightForeArm
						{
							OFFSET -2.597580 -0.000000 -0.000000
							CHANNELS 3 Zrotation Yrotation Xrotation
							JOINT RightHand
							{
								OFFSET -2.455420 -0.000000 -0.000000
								CHANNELS 3 Zrotation Yrotation Xrotation
								End Site
								{
									OFFSET 0.000000 0.000000 0.000000
								}
							}
						}
					}
				}
			}
		}
	}
	JOINT LeftUpLeg
	{
		OFFSET 1.271939 0.000000 0.000000
		CHANNELS 3 Zrotation Yrotation Xrotation
		JOINT LeftLowLeg
		{
			OFFSET 0.000000 -4.342910 0.000000
			CHANNELS 3 Zrotation Yrotation Xrotation
			JOINT LeftFoot
			{
				OFFSET 0.000000 -4.487670 0.000000
				CHANNELS 3 Zrotation Yrotation Xrotation
				JOINT LeftToeBase
				{
					OFFSET 0.000000 0.000000 1.515070
					CHANNELS 3 Zrotation Yrotation Xrotation
					End Site
					{
						OFFSET 0.000000 0.000000 0.000000
					}
				}
			}
		}
	}
	JOINT RightUpLeg
	{
		OFFSET -1.271939 0.000000 0.000000
		CHANNELS 3 Zrotation Yrotation Xrotation
		JOINT RightLowLeg
		{
			OFFSET 0.000000 -4.342910 0.000000
			CHANNELS 3 Zrotation Yrotation Xrotation
			JOINT RightFoot
			{
				OFFSET 0.000000 -4.487670 0.000000
				CHANNELS 3 Zrotation Yrotation Xrotation
				JOINT RightToeBase
				{
					OFFSET 0.000000 0.000000 1.515070
					CHANNELS 3 Zrotation Yrotation Xrotation
					End Site
					{
						OFFSET 0.000000 0.000000 0.000000
					}
				}
			}
		}
	}
}
MOTION
Frames: 14
Frame Time: 0.041667
-31.000737 9.324170 38.451445 -3.181370 7.251132 1.619695 2.289383 1.295259 -6.091062 -2.937300 1.126227 14.890343 0.000000 0.000000 0.000000 26.350205 -0.895810 2.031740 11.403247 16.678631 -45.738526 -12.219800 6.875210 3.651500 -57.930000 -5.975040 20.083700 0.000000 -31.315201 0.000000 19.744600 11.643000 -0.456869 8.612800 -8.240250 6.021880 51.405899 28.840700 22.826300 -180.000000 41.643005 -180.000000 -66.430298 45.095798 -13.602200 6.957185 0.768854 -21.099391 0.000000 0.000000 56.855301 11.722903 1.696431 13.643405 0.000000 0.000000 -43.192600 5.843918 3.009455 -5.697914 0.000000 0.000000 11.081600 7.747239 -6.289024 12.048063 0.000000 0.000000 -28.497200 
-31.012338 9.325802 38.501664 -3.135364 7.583167 1.892976 2.452575 1.307260 -6.224416 -2.966676 1.105104 14.728402 0.000000 0.000000 0.000000 24.923885 -0.086082 2.329680 10.902819 15.786831 -45.944246 -12.257500 6.722100 3.722450 -57.829102 -5.730470 20.128799 0.000000 -30.875700 0.000000 19.386101 11.367700 0.006242 8.993930 -8.266110 6.354450 50.867500 29.987900 22.530001 -180.000000 41.654999 -180.000000 -65.551399 43.706501 -13.650400 6.911389 0.960803 -21.407758 0.000000 0.000000 53.790001 12.284926 1.838748 12.988124 0.000000 0.000000 -42.651600 5.932743 2.793937 -5.296855 0.000000 0.000000 10.425500 7.295868 -6.517138 12.051314 0.000000 0.000000 -28.648300 
-31.021392 9.325391 38.551896 -3.113254 7.887678 2.139932 2.592870 1.354486 -6.340869 -2.931139 1.126653 14.641994 0.000000 0.000000 0.000000 23.704886 0.535494 2.519870 10.182537 15.013667 -46.101264 -12.296000 6.665310 3.850460 -57.741699 -5.755090 20.247499 0.000000 -30.283001 0.000000 18.915701 10.917900 -0.047082 9.360430 -8.349700 6.425120 50.390598 30.940100 22.422001 180.000000 41.619003 180.000000 -64.495003 41.944698 -13.868800 6.846932 1.222845 -21.440524 0.000000 0.000000 50.008301 12.917433 1.985334 12.557551 0.000000 0.000000 -42.263700 6.016292 2.685948 -4.888494 0.000000 0.000000 9.802480 7.336629 -6.647869 11.864108 0.000000 0.000000 -28.529600 
-31.027526 9.323437 38.602591 -3.171581 8.248515 2.391484 2.792449 1.375036 -6.471231 -2.889969 1.111023 14.539193 0.000000 0.000000 0.000000 22.516424 1.180420 2.739558 9.495156 14.248970 -46.176937 -12.367400 6.492430 3.711140 -57.646198 -5.427580 20.249100 0.000000 -29.827000 0.000000 18.721901 10.873600 0.261951 9.647310 -8.379860 6.441830 50.078499 31.722900 22.328699 180.000000 41.580994 180.000000 -63.283798 40.166302 -14.098300 6.830557 1.624078 -21.320283 0.000000 0.000000 45.716499 13.055481 2.138696 12.522094 0.000000 0.000000 -41.862700 6.162059 2.708250 -4.450931 0.000000 0.000000 9.122070 7.267785 -6.943578 11.771780 0.000000 0.000000 -28.793400 
-31.029680 9.319888 38.652162 -3.271179 8.659716 2.694468 3.032226 1.343059 -6.681714 -2.694130 1.041999 14.458143 0.000000 0.000000 0.000000 20.881669 2.151683 3.038604 9.179626 13.160676 -46.364725 -12.589100 6.544900 3.710870 -57.532501 -5.523950 20.236401 0.000000 -29.150999 0.000000 18.542700 10.810800 0.346531 10.534500 -7.628790 6.480900 48.195099 31.428699 21.842199 180.000000 38.835007 180.000000 -59.295399 31.248600 -10.575900 6.838028 2.070270 -21.107637 0.000000 0.000000 41.036400 12.715288 2.038223 12.795262 0.000000 0.000000 -41.756599 6.321498 2.778181 -4.048656 0.000000 0.000000 8.384450 7.296702 -7.292070 11.597476 0.000000 0.000000 -28.518300 
-31.028731 9.315500 38.702238 -3.421575 9.163879 3.010646 3.309471 1.311209 -6.892223 -2.706748 0.957156 14.347145 0.000000 0.000000 0.000000 19.874330 2.801951 3.341167 8.541398 12.516612 -46.279348 -12.602700 6.634940 3.708830 -57.571602 -5.578490 19.882799 0.000000 -28.589300 0.000000 18.554300 10.741800 0.277230 10.673100 -7.466680 6.526030 48.139801 31.840799 21.427900 -180.000000 38.863007 -180.000000 -58.452599 30.307199 -10.886200 6.880845 2.569467 -20.809892 0.000000 0.000000 36.112499 12.129624 1.464356 12.832392 0.000000 0.000000 -41.795099 6.525176 2.640310 -3.626365 0.000000 0.000000 7.563310 7.389114 -7.560526 11.477469 0.000000 0.000000 -28.477500 
-31.025010 9.310458 38.753417 -3.562876 9.781647 3.330091 3.533508 1.238265 -7.129154 -2.653026 0.844754 14.301788 0.000000 0.000000 0.000000 19.079590 3.270644 3.681785 7.722228 11.975016 -46.328649 -12.634000 6.665320 3.766330 -57.622398 -5.692790 19.409800 0.000000 -28.111601 0.000000 18.641600 10.921400 0.269401 10.770300 -7.331180 6.577890 48.150299 32.168098 21.018499 180.000000 38.860992 180.000000 -57.810699 29.358801 -11.102700 6.803452 3.326830 -20.424653 0.000000 0.000000 31.065500 12.262452 0.673698 12.491897 0.000000 0.000000 -41.606100 6.715644 2.366348 -3.161238 0.000000 0.000000 6.723070 7.500307 -7.779696 11.325208 0.000000 0.000000 -28.391800 
-31.017115 9.302913 38.804251 -3.741589 10.457893 3.660597 3.738461 1.159984 -7.364738 -2.488151 0.732310 14.220686 0.000000 0.000000 0.000000 18.302477 3.674581 3.980748 7.023496 11.357765 -46.364576 -12.686200 6.590310 3.693410 -57.689499 -5.585550 19.013800 0.000000 -27.807100 0.000000 18.812300 11.058000 -0.218745 10.790000 -7.208290 6.677710 48.122299 32.407001 20.610600 -180.000000 38.800995 -180.000000 -57.122898 28.003201 -11.665100 6.596065 4.361053 -20.112737 0.000000 0.000000 26.228901 12.585596 -0.122906 11.767887 0.000000 0.000000 -41.358299 6.933372 1.863137 -2.747584 0.000000 0.000000 5.950760 7.575983 -7.857975 11.129744 0.000000 0.000000 -28.242800 
-31.005892 9.293738 38.855351 -3.935815 11.187313 3.972819 3.942969 1.074116 -7.547184 -2.337277 0.610434 14.126119 0.000000 0.000000 0.000000 17.645102 3.981304 4.169733 6.425532 10.809638 -46.318058 -12.712400 6.814200 3.732900 -57.737801 -5.887210 18.943701 0.000000 -27.503000 0.000000 18.808001 11.184900 -0.651747 10.930200 -7.188050 6.788960 47.912899 32.731998 20.078100 180.000000 38.662003 180.000000 -55.999699 26.355400 -11.911500 6.269735 5.510323 -19.848548 0.000000 0.000000 21.659901 12.329151 -0.744264 11.184126 0.000000 0.000000 -41.326799 7.159324 1.345084 -2.415956 0.000000 0.000000 5.380200 7.625778 -7.950808 10.862803 0.000000 0.000000 -28.165100 
-30.990427 9.284470 38.905512 -4.101802 11.923092 4.304867 4.117653 1.013097 -7.707142 -2.178003 0.517302 13.983381 0.000000 0.000000 0.000000 17.093874 4.196271 4.376805 5.898828 10.263134 -46.245104 -12.770000 6.876810 3.790200 -57.712799 -6.043830 18.902599 0.000000 -27.436701 0.000000 18.780800 11.307800 -0.900896 11.075300 -7.281360 6.787680 47.772499 33.021702 19.642799 180.000000 38.600006 180.000000 -54.705200 25.112101 -12.058900 5.753613 6.820703 -19.596400 0.000000 0.000000 17.240999 11.660242 -1.340148 11.299852 0.000000 0.000000 -41.284401 7.336149 0.740628 -2.280300 0.000000 0.000000 5.125550 7.707262 -7.944836 10.515221 0.000000 0.000000 -28.171800 
-30.971315 9.276308 38.953958 -4.204292 12.662967 4.645232 4.204304 0.940884 -7.793217 -1.993627 0.429929 13.776496 0.000000 0.000000 0.000000 16.693543 4.310754 4.611985 5.370371 9.794216 -46.187277 -12.858200 6.842760 3.582770 -57.692200 -5.834160 18.755100 0.000000 -27.526899 0.000000 18.678499 11.133200 -0.755043 11.219100 -7.433980 6.729220 47.657600 33.314701 19.372101 -180.000000 38.690994 -180.000000 -53.906300 24.557100 -12.054100 4.961894 8.431605 -19.491748 0.000000 0.000000 13.323700 11.071248 -1.895517 12.309961 0.000000 0.000000 -41.097000 7.429535 0.256083 -2.315603 0.000000 0.000000 5.202070 7.888134 -7.993903 10.040854 0.000000 0.000000 -28.186500 
-30.948877 9.269604 39.003585 -4.264469 13.354057 4.989009 4.227396 0.853196 -7.900522 -1.833769 0.340615 13.590245 0.000000 0.000000 0.000000 16.303874 4.516216 4.927135 4.934768 9.393596 -46.172092 -12.934500 6.901740 3.474860 -57.687599 -5.751560 18.496201 0.000000 -27.661699 0.000000 18.579500 10.940100 -0.604518 11.333400 -7.389430 6.742220 47.591499 33.436199 18.963100 180.000000 38.779999 180.000000 -53.084599 24.489700 -11.710500 3.879424 10.497407 -19.553941 0.000000 0.000000 10.092200 10.600068 -2.353192 13.512841 0.000000 0.000000 -40.758301 7.457514 0.031759 -2.462230 0.000000 0.000000 5.525230 8.122365 -8.176113 9.477205 0.000000 0.000000 -28.242000 
-30.921077 9.262905 39.054321 -4.340226 14.067245 5.311213 4.298544 0.766946 -8.055816 -1.720466 0.242925 13.476123 0.000000 0.000000 0.000000 15.948143 4.705821 5.207392 4.576347 9.015163 -46.104996 -12.957100 6.787360 3.544950 -57.720100 -5.656700 18.036699 0.000000 -27.955400 0.000000 18.602301 10.970400 -0.761398 11.438500 -7.223200 6.778900 47.510200 33.516300 18.400499 180.000000 38.779999 180.000000 -51.965500 24.084299 -11.297700 2.592026 12.806859 -19.780703 0.000000 0.000000 7.622850 9.631492 -2.602561 14.119526 0.000000 0.000000 -40.359200 7.483901 -0.112660 -2.577275 0.000000 0.000000 5.841050 8.329158 -8.483338 8.930587 0.000000 0.000000 -28.221900 
-30.888460 9.256381 39.107217 -4.411566 14.818612 5.511630 4.339445 0.676243 -8.021362 -1.580955 0.145550 13.288343 0.000000 0.000000 0.000000 15.733716 4.787037 5.396283 4.147296 8.782458 -46.061313 -12.994100 6.853230 3.585690 -57.720001 -5.672390 17.960501 0.000000 -28.252100 0.000000 18.640900 10.978900 -0.926985 11.523000 -7.167960 6.887600 47.435200 33.615799 17.962099 180.000000 38.705002 180.000000 -51.107800 23.390400 -11.239500 1.121360 15.336410 -20.054583 0.000000 0.000000 5.952800 9.351915 -2.648712 14.068255 0.000000 0.000000 -40.270000 7.509010 -0.198397 -2.493605 0.000000 0.000000 6.045210 8.509928 -8.978758 8.396852 0.000000 0.000000 -28.149300 
